<svg xmlns="http://www.w3.org/2000/svg" xmlns:xlink="http://www.w3.org/1999/xlink" contentStyleType="text/css" data-diagram-type="DESCRIPTION" height="585px" preserveAspectRatio="none" style="width:423px;height:585px;background:#FFFFFF;" version="1.1" viewBox="0 0 423 585" width="423px" zoomAndPan="magnify"><defs/><g><!--cluster infra--><g class="cluster" data-entity="infra" data-source-line="2" data-uid="ent0002" id="cluster_infra"><rect fill="none" height="250" rx="2.5" ry="2.5" style="stroke:#181818;stroke-width:1;" width="231" x="7" y="15"/><text fill="#000000" font-family="sans-serif" font-size="14" font-weight="bold" lengthAdjust="spacing" textLength="37.208" x="103.896" y="29.9951">infra</text></g><!--cluster functional--><g class="cluster" data-entity="functional" data-source-line="9" data-uid="ent0007" id="cluster_functional"><rect fill="none" height="113" rx="2.5" ry="2.5" style="stroke:#181818;stroke-width:1;" width="147" x="270" y="466"/><text fill="#000000" font-family="sans-serif" font-size="14" font-weight="bold" lengthAdjust="spacing" textLength="79.6455" x="303.6772" y="480.9951">functional</text></g><!--cluster executive--><g class="cluster" data-entity="executive" data-source-line="13" data-uid="ent0009" id="cluster_executive"><rect fill="none" height="113" rx="2.5" ry="2.5" style="stroke:#181818;stroke-width:1;" width="143" x="270" y="313"/><text fill="#000000" font-family="sans-serif" font-size="14" font-weight="bold" lengthAdjust="spacing" textLength="76.3984" x="303.3008" y="327.9951">executive</text></g><!--cluster planning--><g class="cluster" data-entity="planning" data-source-line="17" data-uid="ent0011" id="cluster_planning"><rect fill="none" height="113" rx="2.5" ry="2.5" style="stroke:#181818;stroke-width:1;" width="143" x="270" y="160"/><text fill="#000000" font-family="sans-serif" font-size="14" font-weight="bold" lengthAdjust="spacing" textLength="68.9883" x="307.0059" y="174.9951">planning</text></g><!--cluster presentation--><g class="cluster" data-entity="presentation" data-source-line="21" data-uid="ent0013" id="cluster_presentation"><rect fill="none" height="113" rx="2.5" ry="2.5" style="stroke:#181818;stroke-width:1;" width="121" x="275" y="7"/><text fill="#000000" font-family="sans-serif" font-size="14" font-weight="bold" lengthAdjust="spacing" textLength="101.4316" x="284.7842" y="21.9951">presentation</text></g><!--entity COMM--><g class="entity" data-entity="COMM" data-source-line="3" data-uid="ent0003" id="entity_COMM"><rect fill="#F1F1F1" height="46.2969" rx="2.5" ry="2.5" style="stroke:#181818;stroke-width:0.5;" width="84.9531" x="23.5" y="50"/><rect fill="#F1F1F1" height="10" style="stroke:#181818;stroke-width:0.5;" width="15" x="88.4531" y="55"/><rect fill="#F1F1F1" height="2" style="stroke:#181818;stroke-width:0.5;" width="4" x="86.4531" y="57"/><rect fill="#F1F1F1" height="2" style="stroke:#181818;stroke-width:0.5;" width="4" x="86.4531" y="61"/><text fill="#000000" font-family="sans-serif" font-size="14" lengthAdjust="spacing" textLength="44.9531" x="38.5" y="82.9951">COMM</text></g><!--entity LOGR--><g class="entity" data-entity="LOGR" data-source-line="4" data-uid="ent0004" id="entity_LOGR"><rect fill="#F1F1F1" height="46.2969" rx="2.5" ry="2.5" style="stroke:#181818;stroke-width:0.5;" width="79.3955" x="143.5" y="50"/><rect fill="#F1F1F1" height="10" style="stroke:#181818;stroke-width:0.5;" width="15" x="202.8955" y="55"/><rect fill="#F1F1F1" height="2" style="stroke:#181818;stroke-width:0.5;" width="4" x="200.8955" y="57"/><rect fill="#F1F1F1" height="2" style="stroke:#181818;stroke-width:0.5;" width="4" x="200.8955" y="61"/><text fill="#000000" font-family="sans-serif" font-size="14" lengthAdjust="spacing" textLength="39.3955" x="158.5" y="82.9951">LOGR</text></g><!--entity SYNC--><g class="entity" data-entity="SYNC" data-source-line="5" data-uid="ent0005" id="entity_SYNC"><rect fill="#F1F1F1" height="46.2969" rx="2.5" ry="2.5" style="stroke:#181818;stroke-width:0.5;" width="77.6865" x="25" y="203"/><rect fill="#F1F1F1" height="10" style="stroke:#181818;stroke-width:0.5;" width="15" x="82.6865" y="208"/><rect fill="#F1F1F1" height="2" style="stroke:#181818;stroke-width:0.5;" width="4" x="80.6865" y="210"/><rect fill="#F1F1F1" height="2" style="stroke:#181818;stroke-width:0.5;" width="4" x="80.6865" y="214"/><text fill="#000000" font-family="sans-serif" font-size="14" lengthAdjust="spacing" textLength="37.6865" x="40" y="235.9951">SYNC</text></g><!--entity DOMN--><g class="entity" data-entity="DOMN" data-source-line="6" data-uid="ent0006" id="entity_DOMN"><rect fill="#F1F1F1" height="46.2969" rx="2.5" ry="2.5" style="stroke:#181818;stroke-width:0.5;" width="84.3516" x="138" y="203"/><rect fill="#F1F1F1" height="10" style="stroke:#181818;stroke-width:0.5;" width="15" x="202.3516" y="208"/><rect fill="#F1F1F1" height="2" style="stroke:#181818;stroke-width:0.5;" width="4" x="200.3516" y="210"/><rect fill="#F1F1F1" height="2" style="stroke:#181818;stroke-width:0.5;" width="4" x="200.3516" y="214"/><text fill="#000000" font-family="sans-serif" font-size="14" lengthAdjust="spacing" textLength="44.3516" x="153" y="235.9951">DOMN</text></g><!--entity DRVR--><g class="entity" data-entity="DRVR" data-source-line="10" data-uid="ent0008" id="entity_DRVR"><rect fill="#F1F1F1" height="46.2969" rx="2.5" ry="2.5" style="stroke:#181818;stroke-width:0.5;" width="79.8125" x="313" y="509"/><rect fill="#F1F1F1" height="10" style="stroke:#181818;stroke-width:0.5;" width="15" x="372.8125" y="514"/><rect fill="#F1F1F1" height="2" style="stroke:#181818;stroke-width:0.5;" width="4" x="370.8125" y="516"/><rect fill="#F1F1F1" height="2" style="stroke:#181818;stroke-width:0.5;" width="4" x="370.8125" y="520"/><text fill="#000000" font-family="sans-serif" font-size="14" lengthAdjust="spacing" textLength="39.8125" x="328" y="541.9951">DRVR</text></g><!--entity CTRL--><g class="entity" data-entity="CTRL" data-source-line="14" data-uid="ent0010" id="entity_CTRL"><rect fill="#F1F1F1" height="46.2969" rx="2.5" ry="2.5" style="stroke:#181818;stroke-width:0.5;" width="75.8545" x="313" y="356"/><rect fill="#F1F1F1" height="10" style="stroke:#181818;stroke-width:0.5;" width="15" x="368.8545" y="361"/><rect fill="#F1F1F1" height="2" style="stroke:#181818;stroke-width:0.5;" width="4" x="366.8545" y="363"/><rect fill="#F1F1F1" height="2" style="stroke:#181818;stroke-width:0.5;" width="4" x="366.8545" y="367"/><text fill="#000000" font-family="sans-serif" font-size="14" lengthAdjust="spacing" textLength="35.8545" x="328" y="388.9951">CTRL</text></g><!--entity MAIN--><g class="entity" data-entity="MAIN" data-source-line="18" data-uid="ent0012" id="entity_MAIN"><rect fill="#FFB6C1" height="46.2969" rx="2.5" ry="2.5" style="stroke:#181818;stroke-width:0.5;" width="76.2578" x="313" y="203"/><rect fill="#FFB6C1" height="10" style="stroke:#181818;stroke-width:0.5;" width="15" x="369.2578" y="208"/><rect fill="#FFB6C1" height="2" style="stroke:#181818;stroke-width:0.5;" width="4" x="367.2578" y="210"/><rect fill="#FFB6C1" height="2" style="stroke:#181818;stroke-width:0.5;" width="4" x="367.2578" y="214"/><text fill="#000000" font-family="sans-serif" font-size="14" lengthAdjust="spacing" textLength="36.2578" x="328" y="235.9951">MAIN</text></g><!--entity UI--><g class="entity" data-entity="UI" data-source-line="22" data-uid="ent0014" id="entity_UI"><rect fill="#F1F1F1" height="46.2969" rx="2.5" ry="2.5" style="stroke:#181818;stroke-width:0.5;" width="54.376" x="318" y="50"/><rect fill="#F1F1F1" height="10" style="stroke:#181818;stroke-width:0.5;" width="15" x="352.376" y="55"/><rect fill="#F1F1F1" height="2" style="stroke:#181818;stroke-width:0.5;" width="4" x="350.376" y="57"/><rect fill="#F1F1F1" height="2" style="stroke:#181818;stroke-width:0.5;" width="4" x="350.376" y="61"/><text fill="#000000" font-family="sans-serif" font-size="14" lengthAdjust="spacing" textLength="14.376" x="333" y="82.9951">UI</text></g><!--link executive to functional--><g class="link" data-entity-1="executive" data-entity-2="functional" data-source-line="25" data-uid="lnk15" id="link_executive_functional"><path d="M278,426.2205 C278,426.4862 278,426.7525 278,427.0194 C278,427.5532 278,428.0891 278,428.6272 C278,437.2363 278,446.3816 278,455.5263 C278,457.8124 278,460.0986 278,462.3763 C278,463.5151 278,458.6519 278,459.7855" fill="none" id="executive-to-functional" style="stroke:#181818;stroke-width:1;"/><polygon fill="#181818" points="278,465.7855,282,456.7855,278,460.7855,274,456.7855,278,465.7855" style="stroke:#181818;stroke-width:1;"/></g><!--link planning to executive--><g class="link" data-entity-1="planning" data-entity-2="executive" data-source-line="26" data-uid="lnk16" id="link_planning_executive"><path d="M278,273.2205 C278,273.4862 278,273.7525 278,274.0194 C278,274.5532 278,275.0891 278,275.6272 C278,284.2363 278,293.3816 278,302.5263 C278,304.8124 278,307.0986 278,309.3763 C278,310.5151 278,305.6519 278,306.7855" fill="none" id="planning-to-executive" style="stroke:#181818;stroke-width:1;"/><polygon fill="#181818" points="278,312.7855,282,303.7855,278,307.7855,274,303.7855,278,312.7855" style="stroke:#181818;stroke-width:1;"/></g><!--link presentation to planning--><g class="link" data-entity-1="presentation" data-entity-2="planning" data-source-line="27" data-uid="lnk17" id="link_presentation_planning"><path d="M281.4714,120.2205 C281.4626,120.4862 281.4537,120.7525 281.4449,121.0194 C281.4272,121.5532 281.4094,122.0891 281.3916,122.6272 C281.1063,131.2363 280.8031,140.3816 280.5,149.5263 C280.4242,151.8124 280.3484,154.0986 280.2729,156.3763 C280.2352,157.5151 280.3963,152.6552 280.3587,153.7888" fill="none" id="presentation-to-planning" style="stroke:#181818;stroke-width:1;stroke-dasharray:7,7;"/><polygon fill="#181818" points="280.1599,159.7855,284.4559,150.923,280.3256,154.7882,276.4603,150.6579,280.1599,159.7855" style="stroke:#181818;stroke-width:1;"/></g><!--reverse link UI to MAIN--><g class="link" data-entity-1="UI" data-entity-2="MAIN" data-source-line="29" data-uid="lnk19" id="link_UI_MAIN"><path d="M346.1273,102.2753 C347.2573,130.8253 348.97,174.03 350.11,202.63" fill="none" id="UI-backto-MAIN" style="stroke:#FF0000;stroke-width:1;"/><polygon fill="#FF0000" points="345.89,96.28,342.2491,105.4312,346.0877,101.2761,350.2428,105.1148,345.89,96.28" style="stroke:#FF0000;stroke-width:1;"/></g><!--SRC=[POxB2i8m44NtynK1r-qd5AG5AJIjn0U8k0XrMeDrMc8gWlZlfYwYJMPvENVkqLWRIMs7J56Z9Ni1irVtjw4d9CFIYdClAggLyABDeKozAAju2My0xGQQaMgZUf9Ti9A9lPZ3-CHwDEg1eT5M57Dsw2IHeZP0-J8lsQ9GxSMi5LszbiQxXUIa53Ht-GJ_9A8e-VC7jpZbZeBPopXEd1d0LoKQX-D2u_baMtRX0m00]--></g></svg>