<svg xmlns="http://www.w3.org/2000/svg" xmlns:xlink="http://www.w3.org/1999/xlink" contentStyleType="text/css" data-diagram-type="SEQUENCE" height="410px" preserveAspectRatio="none" style="width:397px;height:410px;background:#FFFFFF;" version="1.1" viewBox="0 0 397 410" width="397px" zoomAndPan="magnify"><defs/><g><g><title>CTRL</title><rect fill="#FFFFFF" height="79.2656" style="stroke:#FFFFFF;stroke-width:1;" width="10" x="205.561" y="237.2266"/><line style="stroke:#181818;stroke-width:1;" x1="205.561" x2="205.561" y1="237.2266" y2="316.4922"/><line style="stroke:#181818;stroke-width:1;" x1="215.561" x2="215.561" y1="237.2266" y2="316.4922"/><line style="stroke:#181818;stroke-width:1;" x1="205.561" x2="215.561" y1="237.2266" y2="237.2266"/></g><g><title>CTRL</title><rect fill="#FFFFFF" height="6" style="stroke:#FFFFFF;stroke-width:1;" width="10" x="205.561" y="344.4922"/><line style="stroke:#181818;stroke-width:1;" x1="205.561" x2="205.561" y1="344.4922" y2="350.4922"/><line style="stroke:#181818;stroke-width:1;" x1="215.561" x2="215.561" y1="344.4922" y2="350.4922"/><line style="stroke:#181818;stroke-width:1;" x1="205.561" x2="215.561" y1="350.4922" y2="350.4922"/></g><g><title>UI</title><rect fill="#FFFFFF" height="29.1328" style="stroke:#181818;stroke-width:1;" width="10" x="298.3467" y="178.9609"/></g><rect fill="none" height="217.7969" style="stroke:#000000;stroke-width:1.5;" width="381.3472" x="10" y="140.6953"/><g><title>MAIN</title><rect fill="#000000" fill-opacity="0.00000" height="280.1953" width="8" x="41.1289" y="36.2969"/><line style="stroke:#181818;stroke-width:0.5;stroke-dasharray:5,5;" x1="45" x2="45" y1="36.2969" y2="316.4922"/></g><line style="stroke:#181818;stroke-width:0.5;stroke-dasharray:1,4;" x1="45" x2="45" y1="316.4922" y2="344.4922"/><g><title>MAIN</title><rect fill="#000000" fill-opacity="0.00000" height="31" width="8" x="41.1289" y="344.4922"/><line style="stroke:#181818;stroke-width:0.5;stroke-dasharray:5,5;" x1="45" x2="45" y1="344.4922" y2="375.4922"/></g><g><title>CTRL</title><rect fill="#000000" fill-opacity="0.00000" height="280.1953" width="8" x="206.561" y="36.2969"/><line style="stroke:#181818;stroke-width:0.5;stroke-dasharray:5,5;" x1="209.6338" x2="209.6338" y1="36.2969" y2="316.4922"/></g><line style="stroke:#181818;stroke-width:0.5;stroke-dasharray:1,4;" x1="209.6338" x2="209.6338" y1="316.4922" y2="344.4922"/><g><title>CTRL</title><rect fill="#000000" fill-opacity="0.00000" height="31" width="8" x="206.561" y="344.4922"/><line style="stroke:#181818;stroke-width:0.5;stroke-dasharray:5,5;" x1="209.6338" x2="209.6338" y1="344.4922" y2="375.4922"/></g><g><title>UI</title><rect fill="#000000" fill-opacity="0.00000" height="280.1953" width="8" x="299.3467" y="36.2969"/><line style="stroke:#181818;stroke-width:0.5;stroke-dasharray:5,5;" x1="303.1587" x2="303.1587" y1="36.2969" y2="316.4922"/></g><line style="stroke:#181818;stroke-width:0.5;stroke-dasharray:1,4;" x1="303.1587" x2="303.1587" y1="316.4922" y2="344.4922"/><g><title>UI</title><rect fill="#000000" fill-opacity="0.00000" height="31" width="8" x="299.3467" y="344.4922"/><line style="stroke:#181818;stroke-width:0.5;stroke-dasharray:5,5;" x1="303.1587" x2="303.1587" y1="344.4922" y2="375.4922"/></g><g><title>DRVR</title><rect fill="#000000" fill-opacity="0.00000" height="280.1953" width="8" x="350.4409" y="36.2969"/><line style="stroke:#181818;stroke-width:0.5;stroke-dasharray:5,5;" x1="353.5347" x2="353.5347" y1="36.2969" y2="316.4922"/></g><line style="stroke:#181818;stroke-width:0.5;stroke-dasharray:1,4;" x1="353.5347" x2="353.5347" y1="316.4922" y2="344.4922"/><g><title>DRVR</title><rect fill="#000000" fill-opacity="0.00000" height="31" width="8" x="350.4409" y="344.4922"/><line style="stroke:#181818;stroke-width:0.5;stroke-dasharray:5,5;" x1="353.5347" x2="353.5347" y1="344.4922" y2="375.4922"/></g><g class="participant participant-head" data-participant="MAIN"><rect fill="#E2E2F0" height="30.2969" rx="2.5" ry="2.5" style="stroke:#181818;stroke-width:0.5;" width="50.2578" x="20" y="5"/><text fill="#000000" font-family="sans-serif" font-size="14" lengthAdjust="spacing" textLength="36.2578" x="27" y="24.9951">MAIN</text></g><g class="participant participant-tail" data-participant="MAIN"><rect fill="#E2E2F0" height="30.2969" rx="2.5" ry="2.5" style="stroke:#181818;stroke-width:0.5;" width="50.2578" x="20" y="374.4922"/><text fill="#000000" font-family="sans-serif" font-size="14" lengthAdjust="spacing" textLength="36.2578" x="27" y="394.4873">MAIN</text></g><g class="participant participant-head" data-participant="CTRL"><rect fill="#E2E2F0" height="30.2969" rx="2.5" ry="2.5" style="stroke:#181818;stroke-width:0.5;" width="49.8545" x="185.6338" y="5"/><text fill="#000000" font-family="sans-serif" font-size="14" lengthAdjust="spacing" textLength="35.8545" x="192.6338" y="24.9951">CTRL</text></g><g class="participant participant-tail" data-participant="CTRL"><rect fill="#E2E2F0" height="30.2969" rx="2.5" ry="2.5" style="stroke:#181818;stroke-width:0.5;" width="49.8545" x="185.6338" y="374.4922"/><text fill="#000000" font-family="sans-serif" font-size="14" lengthAdjust="spacing" textLength="35.8545" x="192.6338" y="394.4873">CTRL</text></g><g class="participant participant-head" data-participant="UI"><rect fill="#E2E2F0" height="30.2969" rx="2.5" ry="2.5" style="stroke:#181818;stroke-width:0.5;" width="28.376" x="289.1587" y="5"/><text fill="#000000" font-family="sans-serif" font-size="14" lengthAdjust="spacing" textLength="14.376" x="296.1587" y="24.9951">UI</text></g><g class="participant participant-tail" data-participant="UI"><rect fill="#E2E2F0" height="30.2969" rx="2.5" ry="2.5" style="stroke:#181818;stroke-width:0.5;" width="28.376" x="289.1587" y="374.4922"/><text fill="#000000" font-family="sans-serif" font-size="14" lengthAdjust="spacing" textLength="14.376" x="296.1587" y="394.4873">UI</text></g><g class="participant participant-head" data-participant="DRVR"><rect fill="#E2E2F0" height="30.2969" rx="2.5" ry="2.5" style="stroke:#181818;stroke-width:0.5;" width="53.8125" x="327.5347" y="5"/><text fill="#000000" font-family="sans-serif" font-size="14" lengthAdjust="spacing" textLength="39.8125" x="334.5347" y="24.9951">DRVR</text></g><g class="participant participant-tail" data-participant="DRVR"><rect fill="#E2E2F0" height="30.2969" rx="2.5" ry="2.5" style="stroke:#181818;stroke-width:0.5;" width="53.8125" x="327.5347" y="374.4922"/><text fill="#000000" font-family="sans-serif" font-size="14" lengthAdjust="spacing" textLength="39.8125" x="334.5347" y="394.4873">DRVR</text></g><g><title>CTRL</title><rect fill="#FFFFFF" height="79.2656" style="stroke:#FFFFFF;stroke-width:1;" width="10" x="205.561" y="237.2266"/><line style="stroke:#181818;stroke-width:1;" x1="205.561" x2="205.561" y1="237.2266" y2="316.4922"/><line style="stroke:#181818;stroke-width:1;" x1="215.561" x2="215.561" y1="237.2266" y2="316.4922"/><line style="stroke:#181818;stroke-width:1;" x1="205.561" x2="215.561" y1="237.2266" y2="237.2266"/></g><g><title>CTRL</title><rect fill="#FFFFFF" height="6" style="stroke:#FFFFFF;stroke-width:1;" width="10" x="205.561" y="344.4922"/><line style="stroke:#181818;stroke-width:1;" x1="205.561" x2="205.561" y1="344.4922" y2="350.4922"/><line style="stroke:#181818;stroke-width:1;" x1="215.561" x2="215.561" y1="344.4922" y2="350.4922"/><line style="stroke:#181818;stroke-width:1;" x1="205.561" x2="215.561" y1="350.4922" y2="350.4922"/></g><g><title>UI</title><rect fill="#FFFFFF" height="29.1328" style="stroke:#181818;stroke-width:1;" width="10" x="298.3467" y="178.9609"/></g><g class="message" data-participant-1="MAIN" data-participant-2="DRVR"><polygon fill="#181818" points="342.4409,63.4297,352.4409,67.4297,342.4409,71.4297,346.4409,67.4297" style="stroke:#181818;stroke-width:1;"/><line style="stroke:#181818;stroke-width:1;" x1="45.1289" x2="348.4409" y1="67.4297" y2="67.4297"/><text fill="#000000" font-family="sans-serif" font-size="13" lengthAdjust="spacing" textLength="64.3271" x="52.1289" y="62.3638">initialize()</text></g><g class="message" data-participant-1="MAIN" data-participant-2="UI"><polygon fill="#181818" points="291.3467,92.5625,301.3467,96.5625,291.3467,100.5625,295.3467,96.5625" style="stroke:#181818;stroke-width:1;"/><line style="stroke:#181818;stroke-width:1;" x1="45.1289" x2="297.3467" y1="96.5625" y2="96.5625"/><text fill="#000000" font-family="sans-serif" font-size="13" lengthAdjust="spacing" textLength="108.1641" x="52.1289" y="91.4966">initialize(IDriver)</text></g><g class="message" data-participant-1="MAIN" data-participant-2="CTRL"><polygon fill="#181818" points="198.561,121.6953,208.561,125.6953,198.561,129.6953,202.561,125.6953" style="stroke:#181818;stroke-width:1;"/><line style="stroke:#181818;stroke-width:1;" x1="45.1289" x2="204.561" y1="125.6953" y2="125.6953"/><text fill="#000000" font-family="sans-serif" font-size="13" lengthAdjust="spacing" textLength="108.1641" x="52.1289" y="120.6294">initialize(IDriver)</text></g><path d="M10,140.6953 L86.624,140.6953 L86.624,147.8281 L76.624,157.8281 L10,157.8281 L10,140.6953" fill="#EEEEEE" style="stroke:#000000;stroke-width:1.5;"/><rect fill="none" height="217.7969" style="stroke:#000000;stroke-width:1.5;" width="381.3472" x="10" y="140.6953"/><text fill="#000000" font-family="sans-serif" font-size="13" font-weight="bold" lengthAdjust="spacing" textLength="31.624" x="25" y="153.7622">loop</text><g class="message" data-participant-1="MAIN" data-participant-2="UI"><polygon fill="#181818" points="286.3467,174.9609,296.3467,178.9609,286.3467,182.9609,290.3467,178.9609" style="stroke:#181818;stroke-width:1;"/><line style="stroke:#181818;stroke-width:1;" x1="45.1289" x2="292.3467" y1="178.9609" y2="178.9609"/><text fill="#000000" font-family="sans-serif" font-size="13" lengthAdjust="spacing" textLength="82.5132" x="52.1289" y="173.895">read_move()</text></g><g class="message" data-participant-1="UI" data-participant-2="MAIN"><polygon fill="#181818" points="56.1289,204.0938,46.1289,208.0938,56.1289,212.0938,52.1289,208.0938" style="stroke:#181818;stroke-width:1;"/><line style="stroke:#181818;stroke-width:1;stroke-dasharray:2,2;" x1="50.1289" x2="302.3467" y1="208.0938" y2="208.0938"/><text fill="#000000" font-family="sans-serif" font-size="13" lengthAdjust="spacing" textLength="36.3086" x="62.1289" y="203.0278">move</text></g><g class="message" data-participant-1="MAIN" data-participant-2="CTRL"><polygon fill="#181818" points="193.561,233.2266,203.561,237.2266,193.561,241.2266,197.561,237.2266" style="stroke:#181818;stroke-width:1;"/><line style="stroke:#181818;stroke-width:1;" x1="45.1289" x2="199.561" y1="237.2266" y2="237.2266"/><text fill="#000000" font-family="sans-serif" font-size="13" lengthAdjust="spacing" textLength="141.4321" x="52.1289" y="232.1606">execute_move(move)</text></g><g class="message" data-participant-1="CTRL" data-participant-2="CTRL"><line style="stroke:#181818;stroke-width:1;" x1="215.561" x2="257.561" y1="266.3594" y2="266.3594"/><line style="stroke:#181818;stroke-width:1;" x1="257.561" x2="257.561" y1="266.3594" y2="279.3594"/><line style="stroke:#181818;stroke-width:1;" x1="216.561" x2="257.561" y1="279.3594" y2="279.3594"/><polygon fill="#181818" points="226.561,275.3594,216.561,279.3594,226.561,283.3594,222.561,279.3594" style="stroke:#181818;stroke-width:1;"/><text fill="#000000" font-family="sans-serif" font-size="13" font-style="italic" lengthAdjust="spacing" textLength="58.7856" x="222.561" y="261.2935">calculate</text></g><g class="message" data-participant-1="CTRL" data-participant-2="DRVR"><polygon fill="#181818" points="342.4409,304.4922,352.4409,308.4922,342.4409,312.4922,346.4409,308.4922" style="stroke:#181818;stroke-width:1;"/><line style="stroke:#181818;stroke-width:1;" x1="215.561" x2="348.4409" y1="308.4922" y2="308.4922"/><text fill="#000000" font-family="sans-serif" font-size="13" lengthAdjust="spacing" textLength="78.4189" x="222.561" y="303.4263">accelerate()</text></g><g class="message" data-participant-1="CTRL" data-participant-2="MAIN"><polygon fill="#181818" points="56.1289,346.4922,46.1289,350.4922,56.1289,354.4922,52.1289,350.4922" style="stroke:#181818;stroke-width:1;"/><line style="stroke:#181818;stroke-width:1;stroke-dasharray:2,2;" x1="50.1289" x2="209.561" y1="350.4922" y2="350.4922"/></g><!--SRC=[ROyn2uCm48Nt-nKtMgHcToYKkWJQ3bAxbX1l2AGnX2YblxvU13NG9V3kU-_UnQiGZJPUkOYtixo3tmqkZ_QQ3JgPoQPzjW0Sm-CfgHgDCz4eQxvK75RKoGp89fY9miQvwBy3x31uGDmsbMMDWLJ_UWyJT-2iuXWSieQTbPUocJwanqYBdn_EOC9Rjn1QMJrQ5Kc8Z2_VKbgJfJ3ZOebNLRLM0xaUqw4_]--></g></svg>